<svg width="459" height="361" viewBox="0 0 459 361" fill="none" xmlns="http://www.w3.org/2000/svg">
<path fill-rule="evenodd" clip-rule="evenodd" d="M367.738 67.4901C372.346 62.0814 375.464 55.4529 374.943 48.0255C373.442 26.625 343.651 31.3328 337.857 42.1339C332.062 52.9351 332.75 80.333 340.24 82.2635C343.226 83.0333 349.589 81.1475 356.065 77.2443L352 106H376L367.738 67.4901Z" fill="#915B3C"/>
<path fill-rule="evenodd" clip-rule="evenodd" d="M369.582 72.3075C372.594 58.9065 381.175 49.7714 379.865 43.7817C378.991 39.7886 376.662 37.3054 372.879 36.3321C370.922 28.4155 364.61 25.0482 353.944 26.2304C337.945 28.0036 328.181 34.6478 332.398 49.2679C336.274 49.2679 340.954 47.866 347.424 50.2679C349.478 51.03 350.946 53.3934 351.83 57.358H354.754C357.592 52.6531 360.391 50.9241 363.149 52.1712C365.908 53.4183 366.535 56.4474 365.03 61.2586L366.471 72.3075H369.582Z" fill="#191847"/>
<path fill-rule="evenodd" clip-rule="evenodd" d="M443 231H328C319.163 231 312 238.163 312 247V339C312 347.837 319.163 355 328 355H443C451.837 355 459 347.837 459 339V247C459 238.163 451.837 231 443 231ZM427 259C429.209 259 431 260.791 431 263V323C431 325.209 429.209 327 427 327H344C341.791 327 340 325.209 340 323V263C340 260.791 341.791 259 344 259H427Z" fill="#C5CFD6"/>
<path fill-rule="evenodd" clip-rule="evenodd" d="M212.841 350C232.557 325.924 245.897 308.075 252.862 296.454C264.787 276.555 274.547 258.848 277.627 252.084C284.972 235.955 260.718 228.403 255.229 235.926C246.921 247.312 229.178 283.143 202 343.417L212.841 350Z" fill="#B28B67"/>
<path fill-rule="evenodd" clip-rule="evenodd" d="M253.242 343L289.935 250.637C297.783 233.8 259.884 222.732 254.117 230.568C241.023 248.357 209.901 318.534 206 323.834L253.242 343Z" fill="#2F3676"/>
<path fill-rule="evenodd" clip-rule="evenodd" d="M350.967 324.477C343.819 314.051 317.821 278.974 303.661 264.461C299.592 260.291 295.621 256.288 291.866 252.557C280.704 241.47 258.476 260.106 269.618 270.205C297.365 295.355 337.849 329.307 341.231 332.334C345.972 336.577 355.459 331.029 350.967 324.477Z" fill="#915B3C"/>
<path fill-rule="evenodd" clip-rule="evenodd" d="M349.295 319.767C351.758 321.794 353.359 323.45 354.101 324.734C355.002 326.296 356.058 328.725 357.267 332.021C355.456 333.067 339.174 342.467 308.422 360.222C304.73 356.759 304.155 354.07 306.696 352.157C309.238 350.243 311.335 348.629 312.988 347.315L329.848 324.087C330.172 323.64 330.798 323.54 331.244 323.865C331.252 323.87 331.26 323.876 331.267 323.882L334.77 326.579C337.984 326.299 340.382 325.702 341.965 324.788C343.251 324.045 344.727 322.501 346.393 320.154L346.393 320.154C347.033 319.253 348.281 319.041 349.182 319.681C349.221 319.708 349.259 319.737 349.295 319.767Z" fill="#E4E4E4"/>
<path fill-rule="evenodd" clip-rule="evenodd" d="M221.322 346.402C222.441 349.388 223 351.623 223 353.106C223 354.909 222.7 357.54 222.099 361C220.007 361 201.206 361 165.697 361C164.231 356.155 165.077 353.539 168.235 353.152C171.393 352.766 174.016 352.417 176.105 352.106L202.32 340.419C202.824 340.194 203.416 340.421 203.641 340.925C203.644 340.934 203.648 340.942 203.652 340.951L205.337 345.039C208.26 346.403 210.636 347.085 212.463 347.085C213.948 347.085 215.999 346.485 218.616 345.285L218.616 345.285C219.62 344.825 220.807 345.266 221.267 346.27C221.287 346.313 221.305 346.357 221.322 346.402Z" fill="#E4E4E4"/>
<path fill-rule="evenodd" clip-rule="evenodd" d="M303.138 255.25C333.635 250.282 354.062 246.884 364.419 245.058C393.943 239.852 402.552 223.965 397.462 189.302H343.066C335.867 191.381 305.79 204.237 252.832 227.872C243.304 232.602 245.079 246.548 246.82 251.142C246.891 251.329 262.954 278.853 295.008 333.713L339.506 305.365L303.054 258.59C302.092 256.651 302.12 255.538 303.138 255.25Z" fill="#5C63AB"/>
<path fill-rule="evenodd" clip-rule="evenodd" d="M299.219 176.211L267.321 199.635C258.669 201.97 251.441 204.874 245.636 208.349C244.265 209.598 242.608 212.128 248.295 211.691C253.981 211.254 259.982 211.049 260.767 212.989C261.551 214.929 258.11 217.248 259.696 219.865C260.754 221.61 265.749 217.235 274.683 206.741L306.27 193.642L299.219 176.211ZM421.692 177.02L400.795 177.102C413.698 218.756 420.664 240.857 421.692 243.406C424.006 249.14 419.109 257.874 417.015 262.567C423.835 265.619 423.109 254.317 431.712 258.319C439.565 261.973 445.538 268.592 454.611 262.994C455.726 262.306 456.949 259.715 453.995 257.69C446.638 252.645 436.035 243.815 434.602 240.908C432.648 236.945 428.345 215.649 421.692 177.02Z" fill="#915B3C"/>
<path fill-rule="evenodd" clip-rule="evenodd" d="M362.305 89.332L353.658 87.8489C321.575 115.564 308.397 168.809 269.07 197.015L278.536 208.748C346.76 200.3 363.67 135.355 362.305 89.332Z" fill="#E87613"/>
<path fill-rule="evenodd" clip-rule="evenodd" d="M400 198C365.328 198 339.824 198 323.489 198C319.992 198 320.651 192.952 321.157 190.404C326.989 161.004 349.759 129.312 349.759 87.4607L371.828 84C390.083 113.358 396.395 149.505 400 198Z" fill="#DDE3E9"/>
<path fill-rule="evenodd" clip-rule="evenodd" d="M399.385 112.858C402.59 111.937 405.129 109.788 407 106.411C415.066 91.8561 412.153 83.8424 403.533 81.2083C394.912 78.5741 387.225 84 373.49 84C372.743 84 372.059 84.0468 371.437 84.1405L364.528 84.5347C344.706 151.715 339.239 196.537 348.128 219H408.348C411.916 227.32 415.33 234.32 418.591 240H435C436.544 190.067 424.673 147.686 399.385 112.858Z" fill="#FF9B21"/>
<path fill-rule="evenodd" clip-rule="evenodd" d="M395.235 184.498C393.341 200.344 390.263 211.845 386 219H408.348C404.186 209.295 399.815 197.794 395.235 184.498Z" fill="black" fill-opacity="0.1"/>
<rect y="165" width="165" height="19" fill="#57331F"/>
<rect y="184" width="10" height="177" fill="#57331F"/>
<rect x="155" y="184" width="10" height="177" fill="#57331F"/>
<rect x="66" width="6" height="139" fill="#C4C4C4"/>
<rect x="56.4137" y="77" width="5" height="84.2972" transform="rotate(20.6862 56.4137 77)" fill="#866D6D"/>
<rect x="27" y="156" width="29" height="9" fill="#C4C4C4"/>
<rect x="56" y="44" width="10" height="57" fill="#C4C4C4"/>
<rect x="72" y="160" width="83" height="5" fill="#C4C4C4"/>
</svg>
