<svg width="584" height="491" viewBox="0 0 584 491" fill="none" xmlns="http://www.w3.org/2000/svg">
<path fill-rule="evenodd" clip-rule="evenodd" d="M46 0C20.5949 0 0 20.5949 0 46V445C0 470.405 20.5949 491 46 491H538C563.405 491 584 470.405 584 445V46C584 20.5949 563.405 0 538 0H46ZM68 29C42.5949 29 22 49.5949 22 75V419C22 444.405 42.5949 465 68 465H516C541.405 465 562 444.405 562 419V75C562 49.5949 541.405 29 516 29H68Z" fill="#FEFEFF"/>
<path fill-rule="evenodd" clip-rule="evenodd" d="M437.738 154.49C442.346 149.081 445.464 142.453 444.943 135.025C443.442 113.625 413.651 118.333 407.857 129.134C402.062 139.935 402.75 167.333 410.24 169.263C413.226 170.033 419.589 168.147 426.065 164.244L422 193H446L437.738 154.49Z" fill="#915B3C"/>
<path fill-rule="evenodd" clip-rule="evenodd" d="M439.582 159.308C442.594 145.906 451.175 136.771 449.865 130.782C448.991 126.789 446.662 124.305 442.879 123.332C440.922 115.416 434.61 112.048 423.944 113.23C407.945 115.004 398.181 121.648 402.398 136.268C406.274 136.268 410.954 134.866 417.424 137.268C419.478 138.03 420.946 140.393 421.83 144.358H424.754C427.592 139.653 430.391 137.924 433.149 139.171C435.908 140.418 436.535 143.447 435.03 148.259L436.471 159.308H439.582Z" fill="#191847"/>
<path fill-rule="evenodd" clip-rule="evenodd" d="M513 318H398C389.163 318 382 325.163 382 334V426C382 434.837 389.163 442 398 442H513C521.837 442 529 434.837 529 426V334C529 325.163 521.837 318 513 318ZM497 346C499.209 346 501 347.791 501 350V410C501 412.209 499.209 414 497 414H414C411.791 414 410 412.209 410 410V350C410 347.791 411.791 346 414 346H497Z" fill="#C5CFD6"/>
<path fill-rule="evenodd" clip-rule="evenodd" d="M282.841 437C302.557 412.924 315.897 395.075 322.862 383.454C334.787 363.555 344.547 345.848 347.627 339.084C354.972 322.955 330.718 315.403 325.229 322.926C316.921 334.312 299.178 370.143 272 430.417L282.841 437Z" fill="#B28B67"/>
<path fill-rule="evenodd" clip-rule="evenodd" d="M323.242 430L359.935 337.637C367.783 320.8 329.884 309.732 324.117 317.568C311.023 335.357 279.901 405.534 276 410.834L323.242 430Z" fill="#2F3676"/>
<path fill-rule="evenodd" clip-rule="evenodd" d="M420.967 411.477C413.819 401.051 387.821 365.974 373.661 351.461C369.592 347.291 365.621 343.288 361.866 339.557C350.704 328.47 328.476 347.106 339.618 357.205C367.365 382.355 407.849 416.307 411.231 419.334C415.972 423.577 425.459 418.029 420.967 411.477Z" fill="#915B3C"/>
<path fill-rule="evenodd" clip-rule="evenodd" d="M419.295 406.767C421.758 408.794 423.359 410.45 424.101 411.734C425.002 413.296 426.058 415.725 427.267 419.021C425.456 420.067 409.174 429.467 378.422 447.222C374.73 443.759 374.155 441.07 376.696 439.157C379.238 437.243 381.335 435.629 382.988 434.315L399.848 411.087C400.172 410.64 400.798 410.54 401.244 410.865C401.252 410.87 401.26 410.876 401.267 410.882L404.77 413.579C407.984 413.299 410.382 412.702 411.965 411.788C413.251 411.045 414.727 409.501 416.393 407.154L416.393 407.154C417.033 406.253 418.281 406.041 419.182 406.681C419.221 406.708 419.259 406.737 419.295 406.767Z" fill="#E4E4E4"/>
<path fill-rule="evenodd" clip-rule="evenodd" d="M291.322 433.402C292.441 436.388 293 438.623 293 440.106C293 441.909 292.7 444.54 292.099 448C290.007 448 271.206 448 235.697 448C234.231 443.155 235.077 440.539 238.235 440.152C241.393 439.766 244.016 439.417 246.105 439.106L272.32 427.419C272.824 427.194 273.416 427.421 273.641 427.925C273.644 427.934 273.648 427.942 273.652 427.951L275.337 432.039C278.26 433.403 280.636 434.085 282.463 434.085C283.948 434.085 285.999 433.485 288.616 432.285L288.616 432.285C289.62 431.825 290.807 432.266 291.267 433.27C291.287 433.313 291.305 433.357 291.322 433.402Z" fill="#E4E4E4"/>
<path fill-rule="evenodd" clip-rule="evenodd" d="M373.138 342.25C403.635 337.282 424.062 333.884 434.419 332.058C463.943 326.852 472.552 310.965 467.462 276.302H413.066C405.867 278.381 375.79 291.237 322.832 314.872C313.304 319.602 315.079 333.548 316.82 338.142C316.891 338.329 332.954 365.853 365.008 420.713L409.506 392.365L373.054 345.59C372.092 343.651 372.12 342.538 373.138 342.25Z" fill="#5C63AB"/>
<path fill-rule="evenodd" clip-rule="evenodd" d="M369.219 263.211L337.321 286.635C328.669 288.97 321.441 291.874 315.636 295.349C314.265 296.598 312.608 299.128 318.295 298.691C323.981 298.254 329.982 298.049 330.767 299.989C331.551 301.929 328.11 304.248 329.696 306.865C330.754 308.61 335.749 304.235 344.683 293.741L376.27 280.642L369.219 263.211ZM491.692 264.02L470.795 264.102C483.698 305.756 490.664 327.857 491.692 330.406C494.006 336.14 489.109 344.874 487.015 349.567C493.835 352.619 493.109 341.317 501.712 345.319C509.565 348.973 515.538 355.592 524.611 349.994C525.726 349.306 526.949 346.715 523.995 344.69C516.638 339.645 506.035 330.815 504.602 327.908C502.648 323.945 498.345 302.649 491.692 264.02Z" fill="#915B3C"/>
<path fill-rule="evenodd" clip-rule="evenodd" d="M432.305 176.332L423.658 174.849C391.575 202.564 378.397 255.809 339.07 284.015L348.536 295.748C416.76 287.3 433.67 222.355 432.305 176.332Z" fill="#E87613"/>
<path fill-rule="evenodd" clip-rule="evenodd" d="M470 285C435.328 285 409.824 285 393.489 285C389.992 285 390.651 279.952 391.157 277.404C396.989 248.004 419.759 216.312 419.759 174.461L441.828 171C460.083 200.358 466.395 236.505 470 285Z" fill="#DDE3E9"/>
<path fill-rule="evenodd" clip-rule="evenodd" d="M469.385 199.858C472.59 198.937 475.129 196.788 477 193.411C485.066 178.856 482.153 170.842 473.533 168.208C464.912 165.574 457.225 171 443.49 171C442.743 171 442.059 171.047 441.437 171.141L434.528 171.535C414.706 238.715 409.239 283.537 418.128 306H478.348C481.916 314.32 485.33 321.32 488.591 327H505C506.544 277.067 494.673 234.686 469.385 199.858Z" fill="#FF9B21"/>
<path fill-rule="evenodd" clip-rule="evenodd" d="M465.235 271.498C463.341 287.344 460.263 298.845 456 306H478.348C474.186 296.295 469.815 284.794 465.235 271.498Z" fill="black" fill-opacity="0.1"/>
<rect x="70" y="252" width="165" height="19" fill="#57331F"/>
<rect x="70" y="271" width="10" height="177" fill="#57331F"/>
<rect x="225" y="271" width="10" height="177" fill="#57331F"/>
<rect x="136" y="87" width="6" height="139" fill="#C4C4C4"/>
<rect x="126.414" y="164" width="5" height="84.2972" transform="rotate(20.6862 126.414 164)" fill="#866D6D"/>
<rect x="97" y="243" width="29" height="9" fill="#C4C4C4"/>
<rect x="126" y="131" width="10" height="57" fill="#C4C4C4"/>
<rect x="142" y="247" width="83" height="5" fill="#C4C4C4"/>
</svg>
