<svg width="518" height="420" viewBox="0 0 518 420" fill="none" xmlns="http://www.w3.org/2000/svg">
<path fill-rule="evenodd" clip-rule="evenodd" d="M426.738 126.49C431.346 121.081 434.464 114.453 433.943 107.025C432.442 85.625 402.651 90.3328 396.857 101.134C391.062 111.935 391.75 139.333 399.24 141.263C402.226 142.033 408.589 140.147 415.065 136.244L411 165H435L426.738 126.49Z" fill="#915B3C"/>
<path fill-rule="evenodd" clip-rule="evenodd" d="M428.582 131.308C431.594 117.906 440.175 108.771 438.865 102.782C437.991 98.7886 435.662 96.3054 431.879 95.3321C429.922 87.4155 423.61 84.0482 412.944 85.2304C396.945 87.0036 387.181 93.6478 391.398 108.268C395.274 108.268 399.954 106.866 406.424 109.268C408.478 110.03 409.946 112.393 410.83 116.358H413.754C416.592 111.653 419.391 109.924 422.149 111.171C424.908 112.418 425.535 115.447 424.03 120.259L425.471 131.308H428.582Z" fill="#191847"/>
<path fill-rule="evenodd" clip-rule="evenodd" d="M502 290H387C378.163 290 371 297.163 371 306V398C371 406.837 378.163 414 387 414H502C510.837 414 518 406.837 518 398V306C518 297.163 510.837 290 502 290ZM486 318C488.209 318 490 319.791 490 322V382C490 384.209 488.209 386 486 386H403C400.791 386 399 384.209 399 382V322C399 319.791 400.791 318 403 318H486Z" fill="#C5CFD6"/>
<path fill-rule="evenodd" clip-rule="evenodd" d="M271.841 409C291.557 384.924 304.897 367.075 311.862 355.454C323.787 335.555 333.547 317.848 336.627 311.084C343.972 294.955 319.718 287.403 314.229 294.926C305.921 306.312 288.178 342.143 261 402.417L271.841 409Z" fill="#B28B67"/>
<path fill-rule="evenodd" clip-rule="evenodd" d="M312.242 402L348.935 309.637C356.783 292.8 318.884 281.732 313.117 289.568C300.023 307.357 268.901 377.534 265 382.834L312.242 402Z" fill="#2F3676"/>
<path fill-rule="evenodd" clip-rule="evenodd" d="M409.967 383.477C402.819 373.051 376.821 337.974 362.661 323.461C358.592 319.291 354.621 315.288 350.866 311.557C339.704 300.47 317.476 319.106 328.618 329.205C356.365 354.355 396.849 388.307 400.231 391.334C404.972 395.577 414.459 390.029 409.967 383.477Z" fill="#915B3C"/>
<path fill-rule="evenodd" clip-rule="evenodd" d="M408.295 378.767C410.758 380.794 412.359 382.45 413.101 383.734C414.002 385.296 415.058 387.725 416.267 391.021C414.456 392.067 398.174 401.467 367.422 419.222C363.73 415.759 363.155 413.07 365.696 411.157C368.238 409.243 370.335 407.629 371.988 406.315L388.848 383.087C389.172 382.64 389.798 382.54 390.244 382.865C390.252 382.87 390.26 382.876 390.267 382.882L393.77 385.579C396.984 385.299 399.382 384.702 400.965 383.788C402.251 383.045 403.727 381.501 405.393 379.154L405.393 379.154C406.033 378.253 407.281 378.041 408.182 378.681C408.221 378.708 408.259 378.737 408.295 378.767Z" fill="#E4E4E4"/>
<path fill-rule="evenodd" clip-rule="evenodd" d="M280.322 405.402C281.441 408.388 282 410.623 282 412.106C282 413.909 281.7 416.54 281.099 420C279.007 420 260.206 420 224.697 420C223.231 415.155 224.077 412.539 227.235 412.152C230.393 411.766 233.016 411.417 235.105 411.106L261.32 399.419C261.824 399.194 262.416 399.421 262.641 399.925C262.644 399.934 262.648 399.942 262.652 399.951L264.337 404.039C267.26 405.403 269.636 406.085 271.463 406.085C272.948 406.085 274.999 405.485 277.616 404.285L277.616 404.285C278.62 403.825 279.807 404.266 280.267 405.27C280.287 405.313 280.305 405.357 280.322 405.402Z" fill="#E4E4E4"/>
<path fill-rule="evenodd" clip-rule="evenodd" d="M362.138 314.25C392.635 309.282 413.062 305.884 423.419 304.058C452.943 298.852 461.552 282.965 456.462 248.302H402.066C394.867 250.381 364.79 263.237 311.832 286.872C302.304 291.602 304.079 305.548 305.82 310.142C305.891 310.329 321.954 337.853 354.008 392.713L398.506 364.365L362.054 317.59C361.092 315.651 361.12 314.538 362.138 314.25Z" fill="#5C63AB"/>
<path fill-rule="evenodd" clip-rule="evenodd" d="M358.219 235.211L326.321 258.635C317.669 260.97 310.441 263.874 304.636 267.349C303.265 268.598 301.608 271.128 307.295 270.691C312.981 270.254 318.982 270.049 319.767 271.989C320.551 273.929 317.11 276.248 318.696 278.865C319.754 280.61 324.749 276.235 333.683 265.741L365.27 252.642L358.219 235.211ZM480.692 236.02L459.795 236.102C472.698 277.756 479.664 299.857 480.692 302.406C483.006 308.14 478.109 316.874 476.015 321.567C482.835 324.619 482.109 313.317 490.712 317.319C498.565 320.973 504.538 327.592 513.611 321.994C514.726 321.306 515.949 318.715 512.995 316.69C505.638 311.645 495.035 302.815 493.602 299.908C491.648 295.945 487.345 274.649 480.692 236.02Z" fill="#915B3C"/>
<path fill-rule="evenodd" clip-rule="evenodd" d="M421.305 148.332L412.658 146.849C380.575 174.564 367.397 227.809 328.07 256.015L337.536 267.748C405.76 259.3 422.67 194.355 421.305 148.332Z" fill="#E87613"/>
<path fill-rule="evenodd" clip-rule="evenodd" d="M459 257C424.328 257 398.824 257 382.489 257C378.992 257 379.651 251.952 380.157 249.404C385.989 220.004 408.759 188.312 408.759 146.461L430.828 143C449.083 172.358 455.395 208.505 459 257Z" fill="#DDE3E9"/>
<path fill-rule="evenodd" clip-rule="evenodd" d="M458.385 171.858C461.59 170.937 464.129 168.788 466 165.411C474.066 150.856 471.153 142.842 462.533 140.208C453.912 137.574 446.225 143 432.49 143C431.743 143 431.059 143.047 430.437 143.141L423.528 143.535C403.706 210.715 398.239 255.537 407.128 278H467.348C470.916 286.32 474.33 293.32 477.591 299H494C495.544 249.067 483.673 206.686 458.385 171.858Z" fill="#FF9B21"/>
<path fill-rule="evenodd" clip-rule="evenodd" d="M454.235 243.498C452.341 259.344 449.263 270.845 445 278H467.348C463.186 268.295 458.815 256.794 454.235 243.498V243.498Z" fill="black" fill-opacity="0.1"/>
<path fill-rule="evenodd" clip-rule="evenodd" d="M132.417 38.0346C127.612 32.3939 124.359 25.481 124.903 17.735C126.469 -4.58345 157.537 0.326329 163.58 11.5908C169.623 22.8552 168.905 51.4284 161.095 53.4417C157.98 54.2446 151.344 52.2778 144.591 48.2072L148.83 78.1964H123.8L132.417 38.0346Z" fill="#57331F"/>
<path fill-rule="evenodd" clip-rule="evenodd" d="M145.842 20.1999C146.8 33.546 149.335 40.2191 153.446 40.2191C159.612 40.2191 164.844 36.3044 167.549 36.3044C169.522 36.3044 169.081 38.7726 167.774 40.6026C166.695 42.1124 161.443 43.5677 161.443 45.9084C161.443 48.2492 165.593 46.4383 165.593 47.8265C165.593 50.1228 166.322 54.4403 162.337 54.4403C158.303 54.4403 146.739 52.9704 144.757 46.9841C143.478 43.1207 142.651 35.115 142.276 22.967C142.031 22.9379 141.782 22.923 141.53 22.923C138.074 22.923 135.272 25.7245 135.272 29.1803C135.272 30.9347 135.994 32.5205 137.157 33.6567C135.709 35.7003 134.087 37.8352 132.227 40.0381C125.242 35.8472 120.059 23.5789 126.888 11.7935C128.776 6.01996 133.049 2.93612 138.096 1.50419C142.184 -0.205941 146.428 -0.39876 150.011 0.626446C157.033 1.22881 163.304 3.37024 165.082 4.64199C165.082 11.2907 163.793 13.2633 152.79 13.0894C150.086 14.5174 148.007 16.9762 145.842 20.1999Z" fill="#191847"/>
<path fill-rule="evenodd" clip-rule="evenodd" d="M121.793 164.499L172.98 294.055L207.311 403.583H220.868L168.383 164.499L121.793 164.499Z" fill="#3D2216"/>
<path fill-rule="evenodd" clip-rule="evenodd" d="M111.485 164.499C110.94 210.026 102.991 271.32 101.721 274.158C100.874 276.05 71.6462 300.109 14.0363 346.336L23.3736 356.328C91.3479 316.694 126.908 294.234 130.053 288.948C134.772 281.019 150.133 208.053 162.466 164.499H111.485Z" fill="#57331F"/>
<path fill-rule="evenodd" clip-rule="evenodd" d="M12.7874 343C9.65155 344.109 7.49134 345.16 6.30683 346.154C4.86617 347.362 2.96529 349.366 0.60417 352.166C2.00652 353.837 14.6097 368.857 38.4137 397.225C43.2673 395.148 44.79 392.718 42.9818 389.937C41.1736 387.155 39.6937 384.825 38.5423 382.948L30.3054 354.17C30.1469 353.616 29.5695 353.296 29.0158 353.455C29.0063 353.457 28.9969 353.46 28.9875 353.463L24.5923 354.857C21.5429 353.436 19.4056 351.995 18.1804 350.535C17.185 349.349 16.2894 347.308 15.4936 344.414L15.4936 344.414C15.1882 343.303 14.0403 342.65 12.9295 342.956C12.8816 342.969 12.8342 342.984 12.7874 343Z" fill="#E4E4E4"/>
<path fill-rule="evenodd" clip-rule="evenodd" d="M201.76 398.527C200.593 401.641 200.01 403.972 200.01 405.518C200.01 407.399 200.323 410.143 200.95 413.751C203.131 413.751 222.738 413.751 259.771 413.751C261.299 408.698 260.417 405.969 257.124 405.566C253.83 405.164 251.095 404.8 248.916 404.475L221.577 392.287C221.051 392.052 220.434 392.289 220.2 392.815C220.196 392.824 220.192 392.833 220.188 392.842L218.431 397.105C215.382 398.527 212.904 399.239 210.998 399.239C209.45 399.239 207.311 398.613 204.582 397.362L204.582 397.362C203.535 396.882 202.297 397.342 201.817 398.389C201.796 398.434 201.777 398.48 201.76 398.527Z" fill="#E4E4E4"/>
<path fill-rule="evenodd" clip-rule="evenodd" d="M156.208 392.302L220.664 385.306L172.894 164.499H115.164L156.208 392.302Z" fill="#69A1AC"/>
<path fill-rule="evenodd" clip-rule="evenodd" d="M27.3688 330.215L69.6478 380.259C114.179 331.623 140.141 299.887 147.534 285.053C154.926 270.219 161.572 230.034 167.47 164.499H102.476C99.2542 222.154 97.0823 252.323 95.9606 255.006C94.8389 257.689 71.9749 282.759 27.3688 330.215Z" fill="#89C5CC"/>
<path fill-rule="evenodd" clip-rule="evenodd" d="M213.018 151.566L242.561 180.387C251.157 184.053 258.2 188.102 263.69 192.533C264.925 194.022 266.269 196.876 260.46 195.599C254.651 194.322 248.483 193.24 247.391 195.129C246.299 197.018 249.516 199.913 247.499 202.386C246.153 204.034 241.629 198.791 233.926 186.657L203.206 168.544L213.018 151.566ZM68.5525 125.483L91.3892 125.568C73.996 181.92 64.7632 211.425 63.6907 214.083C61.2775 220.063 66.3841 229.171 68.5679 234.066C61.4553 237.249 62.2132 225.462 53.2408 229.636C45.0513 233.446 38.8215 240.35 29.3597 234.512C28.1964 233.794 26.9217 231.091 30.0016 228.98C37.675 223.718 48.7328 214.509 50.2269 211.478C52.2643 207.345 58.3729 178.68 68.5525 125.483Z" fill="#57331F"/>
<path fill-rule="evenodd" clip-rule="evenodd" d="M138.14 60.7004L147.158 59.1536C161.364 109.371 234.355 143.601 238.836 162.374C240.479 169.258 235.524 172.738 238.084 174.835L226.362 183.416C224.377 181.1 220.141 185.336 211.295 182.373C202.449 179.41 138.14 120.162 138.14 60.7004Z" fill="#191847"/>
<path fill-rule="evenodd" clip-rule="evenodd" d="M153.31 67.3766C152.27 133.861 190.703 150.82 182.142 177.49C175.073 199.515 107.408 223.19 95.6993 201.602C90.9596 192.863 88.8093 182.293 88.5653 170.803C85.5727 179.631 83.2059 187.231 81.4649 193.602C78.4614 204.594 66.8176 206.342 66.8176 210.576L51.477 206.342C52.5175 200.589 45.2856 197.788 47.2246 184.935C55.9128 127.349 79.2564 85.607 117.255 59.7084L117.648 54.0866C117.809 51.7883 119.803 50.0554 122.101 50.2161L150.19 52.1804C152.489 52.3411 154.222 54.3345 154.061 56.6328L153.31 67.3766Z" fill="#2F3676"/>
</svg>
